<svg xmlns="http://www.w3.org/2000/svg" width="768" height="512" viewBox="0 0 768 512"><title></title><g id="icomoon-ignore"></g><path fill="#fff" d="M47.451 512h673.098v-512h-673.098z"></path><path fill="#00549a" d="M703.118 144.093h-638.237v-126.663h638.237zM703.118 156.392h-638.237v199.219h638.237zM703.118 494.572h-638.237v-126.664h638.237z"></path><path fill="#fff" d="M601.93 125.444h18.797v-11.683h-18.797zM577.948 125.444h18.797v-11.683h-18.797zM314.93 91.831h-11.478v-16.481h-23.161v16.481h-167.345l-2.037-4.353 15.871-20.648v-14.761h-22.79l-25.153 32.72 14.329 30.611h244.923v-40.050h-23.16zM336.462 53.857h-18.797v11.682h18.797z"></path><path fill="#fff" d="M160.2 57.398h-18.797v11.682h18.797zM184.589 57.398h-18.797v11.682h18.797zM674.693 70.611h-68.452l-10.416-8.681h72.715l-7.587-13.237h-91.294l-1.461 4.68 31.36 26.134h53.951v6.945h-58.295l-19.789-16.493h-39.534v34.94h-65.106v-14.323h54.905v-20.615h-88.758v51.865h122.393v-27.561l13.804 11.504h102.471l14.366-14.722v-4.789zM360.938 100.67h43.346v-18.924h-43.346z"></path><path fill="#fff200" d="M618.714 335.935l-117.171-88.135 115.114-70.503h-206.192l-100.865 61.774v-61.773h-143.808v158.638h143.808v-82.589l92.304 82.589z"></path><path fill="#fff" d="M137.137 477.541v-78.601h20.608v9.326c2.94-3.807 6.411-6.661 10.413-8.567s8.461-2.856 13.378-2.856c8.677 0 15.173 2.253 19.489 6.761 4.314 4.507 6.47 11.291 6.47 20.355v53.581h-21.043v-47.507c0-5.641-0.952-9.666-2.857-12.077-1.904-2.409-5.001-3.614-9.291-3.614-4.966 0-8.895 1.483-11.788 4.446s-4.337 7.003-4.337 12.113v46.639zM366.654 428.987h30.948c-0.192-5.303-1.604-9.342-4.229-12.116-2.627-2.77-6.397-4.158-11.315-4.158-4.58 0-8.183 1.4-10.812 4.194-2.628 2.798-4.158 6.823-4.591 12.079zM397.313 452.702h20.969c-2.123 8.293-6.399 14.788-12.836 19.49-6.438 4.702-14.281 7.049-23.538 7.049-11.378 0-20.393-3.82-27.043-11.462-6.654-7.638-9.978-17.992-9.978-31.056 0-12.869 3.277-23.019 9.835-30.443 6.555-7.424 15.521-11.137 26.899-11.137 12.050 0 21.356 3.652 27.914 10.959 6.553 7.301 9.832 17.702 9.832 31.202 0 1.493-0.013 2.615-0.036 3.36-0.026 0.817-0.094 1.59-0.207 2.35l0.013-0.11 0.013-0.106h-52.498c0.289 6.171 1.795 10.824 4.519 13.955 2.723 3.135 6.639 4.702 11.75 4.702 3.616 0 6.581-0.712 8.894-2.134s4.147-3.627 5.497-6.616zM628.293 487.303c-1.928 0.048-4.229 0.133-6.904 0.252-2.677 0.118-4.375 0.18-5.1 0.18-8.051 0-13.557-1.505-16.521-4.519-2.965-3.012-4.446-8.952-4.446-17.824v-42.518h-10.414v-14.752h10.414v-21.476h20.826v21.476h12.148v14.752h-12.148v43.532c0 2.073 0.457 3.435 1.372 4.086 0.917 0.654 2.795 0.977 5.641 0.977h5.133z"></path></svg>